# xmcd
#
# Track frame offsets: 
#        150
#        22603
#        43701
#        57743
#        75610
#        96021
#        113105
#        135193
#        151418
#        164364
#        182818
#        202458
#        218393
#        240365
#        255479
#
# Disc length: 3624 seconds
#
# Revision: 0
# Processed by: cddbd v1.5.2PL0 Copyright (c) Steve Scherf et al.
# Submitted via: ExactAudioCopy v1.0b3
#
DISCID=bd0e260f
DTITLE=Michael Jason Frost - My Redeemer Lives (2010)
DYEAR=2010
DGENRE=Southern Gospel
TTITLE0=Redeemer (Recorded Live At The Miracle Theater)
TTITLE1=To Be More Like You
TTITLE2=Handle With Prayer
TTITLE3=There's Room In Heaven For You
TTITLE4=Author And Finisher
TTITLE5=Who Will Shout The Loudest
TTITLE6=In The Arms Of Mercy
TTITLE7=All For The Mighty
TTITLE8=Shining Light
TTITLE9=I'll Take God's Word For It
TTITLE10=Whatever Your Cross
TTITLE11=The Last Word
TTITLE12=Redeemer (Studio Cut)
TTITLE13=Clear Title To A Mansion
TTITLE14=Long As I Got King Jesus
EXTD=
EXTT0=
EXTT1=
EXTT2=
EXTT3=
EXTT4=
EXTT5=
EXTT6=
EXTT7=
EXTT8=
EXTT9=
EXTT10=
EXTT11=
EXTT12=
EXTT13=
EXTT14=
PLAYORDER=
